<svg width="593" height="604" viewBox="0 0 593 604" fill="none" xmlns="http://www.w3.org/2000/svg">
<path d="M301.75 603.5C262.124 603.5 222.885 595.695 186.275 580.531C149.665 565.366 116.401 543.14 88.3805 515.119C60.3605 487.099 38.1337 453.835 22.9694 417.225C7.805 380.615 0 341.376 0 301.75C0 262.124 7.805 222.885 22.9694 186.275C38.1337 149.665 60.3605 116.401 88.3805 88.3805C116.401 60.3605 149.665 38.1337 186.275 22.9694C222.885 7.805 262.124 -5.90479e-07 301.75 0C436.97 0 555.88 90.27 592.29 220H514.03C479.81 133.65 394.76 75.78 301.74 75.78C269.603 75.7162 237.819 82.4895 208.5 95.65C158.222 118.21 117.774 158.157 94.59 208.15C80.6234 238.183 73.4238 270.918 73.5 304.04C73.5 429.9 175.88 532.29 301.74 532.29C334.158 532.376 366.216 525.49 395.74 512.1L448.88 565.29C403.902 590.377 353.251 603.531 301.75 603.5Z" fill="#FC0000"/>
</svg>
